# xmcd
#
# Track frame offsets:
#	150
#	25085
#	44954
#	65046
#	81803
#	98665
#	117498
#	134606
#	155101
#	168759
#
# Disc length: 2446 seconds
#
# Revision: 0
# Processed by: cddbd v1.5.2PL0 Copyright (c) Steve Scherf et al.
# Submitted via: EasyCDDAExtractor 2010.4.0.0
#
DISCID=8c098c0a
DTITLE=Marta Sales - Salvo Pelo Invocar
DYEAR=2011
DGENRE=gospel
TTITLE0=Salvo Pelo Invocar
TTITLE1=O plano eterno de Deus
TTITLE2=Não me deixará
TTITLE3=Grande Salvação
TTITLE4=Não prometeu Deus
TTITLE5=A intenção de Deus
TTITLE6=O Senhor Jesus é a fonte
TTITLE7=Conquistando a boa terra
TTITLE8=Ao cheiro das águas
TTITLE9=Te busca, ó Senhor
EXTD=
EXTT0=
EXTT1=
EXTT2=
EXTT3=
EXTT4=
EXTT5=
EXTT6=
EXTT7=
EXTT8=
EXTT9=
PLAYORDER=
